<?xml version="1.0" encoding="UTF-8"?>
<svg width="700px" height="607px" viewBox="0 0 700 607" version="1.1" xmlns="http://www.w3.org/2000/svg" xmlns:xlink="http://www.w3.org/1999/xlink">
    <title>main graphic</title>
    <defs>
        <linearGradient x1="96.4382164%" y1="41.6645105%" x2="22.2125742%" y2="65.5780701%" id="linearGradient-1">
            <stop stop-color="#9ACBFF" offset="0%"></stop>
            <stop stop-color="#4A86EC" offset="100%"></stop>
        </linearGradient>
        <path d="M325.037806,1.2550392 C327.955578,-0.423743048 331.556941,-0.417913943 334.466377,1.27002832 L334.466377,1.27002832 L498.29508,96.0829196 C504.580794,99.7194484 504.564121,108.78787 498.270071,112.405246 L498.270071,112.405246 L449.980183,140.158021 C449.473791,140.621611 448.903745,141.041055 448.270071,141.405246 L448.270071,141.405246 L177.961046,296.744233 C175.040774,298.423848 171.443578,298.418019 168.527474,296.730077 L168.527474,296.730077 L4.70460544,201.916353 C-1.57944082,198.279824 -1.56526879,189.211402 4.72961491,185.594859 L4.72961491,185.594859 L53.0183412,157.842775 C53.5250077,157.378888 54.0954382,156.959207 54.7296149,156.594859 L54.7296149,156.594859 Z" id="path-2"></path>
        <polyline id="path-4" points="27 59 0 43.4619446 0 0 27 15.5380554 27 59"></polyline>
        <polyline id="path-6" points="27 59 0 43.4627007 0 0 27 15.5380554 27 59"></polyline>
        <path d="M22.1842105,1.13686838e-13 C34.0583326,1.13686838e-13 43.6842105,8.92154535 43.6842105,19.9268293 C43.6842105,27.5548859 39.0597011,34.1818631 32.2673989,37.530804 C31.3686431,45.0257472 24.5107485,50.8536585 16.1842105,50.8536585 C7.24591787,50.8536585 0,44.1379298 0,35.8536585 C0,32.926381 0.904716668,30.1949498 2.46913148,27.8864553 C1.32069715,25.4489077 0.684210526,22.7567594 0.684210526,19.9268293 C0.684210526,8.92154535 10.3100884,1.13686838e-13 22.1842105,1.13686838e-13 Z" id="path-8"></path>
        <path d="M14.4868421,0 C21.6665439,0 27.4868421,5.59644063 27.4868421,12.5 C27.4868421,16.7174318 25.3146649,20.4470375 21.9873715,22.7108738 C21.6966001,28.1016279 16.8886692,32.3902439 11,32.3902439 C4.92486775,32.3902439 0,27.8257323 0,22.195122 C0,19.9690978 0.769738777,17.909701 2.07598091,16.2331009 C1.69334926,15.0543691 1.48684211,13.8003732 1.48684211,12.5 C1.48684211,5.59644063 7.30714036,0 14.4868421,0 Z" id="path-10"></path>
        <path d="M43.94375,0 C58.3825444,0 70.0875,13.8735763 70.0875,30.9875 C70.0875,33.4545489 69.844265,35.8542617 69.3846689,38.1547855 C74.2811322,44.9365573 77.2385698,53.7443334 77.2385698,63.3708333 C77.2385698,65.1555917 77.1369127,66.9122078 76.9400872,68.6329909 C84.4182987,75.5746219 89,84.9186561 89,95.1958333 C89,116.626783 69.0766714,134 44.5,134 C19.9233286,134 0,116.626783 0,95.1958333 C0,84.9186561 4.58170125,75.5746219 12.0611276,68.6321645 C11.8630873,66.9122078 11.7614302,65.1555917 11.7614302,63.3708333 C11.7614302,54.3124712 14.3800842,45.9790455 18.7690656,39.3760555 C18.1377686,36.7083859 17.8,33.8946961 17.8,30.9875 C17.8,13.8735763 29.5049556,0 43.94375,0 Z" id="path-12"></path>
    </defs>
    <g id="Design" stroke="none" stroke-width="1" fill="none" fill-rule="evenodd">
        <g id="Homepage-design-1-v2-2" transform="translate(-710.000000, -243.000000)">
            <g id="main-graphic" transform="translate(710.000000, 243.000000)">
                <g id="phone-base" transform="translate(11.000000, 252.000000)">
                    <path d="M213,351 C213.782087,350.851472 214.56167,350.683753 215.332906,350.499345 C215.332906,350.499345 215.334576,350.499345 215.33541,350.498511 C215.361285,350.49267 215.38716,350.485995 215.413035,350.480154 C215.416373,350.479319 215.420547,350.478485 215.423886,350.47765 C215.448091,350.471809 215.470627,350.465968 215.494833,350.460127 C215.500675,350.458459 215.507353,350.45679 215.51403,350.455955 C215.536566,350.450114 215.558268,350.445108 215.580804,350.439267 C215.58915,350.437598 215.595828,350.435929 215.604175,350.433426 C215.625041,350.428419 215.643404,350.424247 215.664271,350.419241 C215.675122,350.415903 215.685138,350.4134 215.696823,350.410896 C215.715186,350.40589 215.733549,350.401718 215.752746,350.396711 C215.764431,350.394208 215.776951,350.39087 215.788637,350.388367 C215.80533,350.38336 215.821189,350.380023 215.838717,350.375851 C215.852907,350.371678 215.867096,350.368341 215.88212,350.365003 C215.897144,350.360831 215.913003,350.356659 215.928027,350.353321 C215.94472,350.349149 215.962249,350.344142 215.978942,350.33997 C215.991462,350.336633 216.002313,350.334129 216.014833,350.330792 C216.039038,350.324951 216.061574,350.31911 216.084945,350.313269 C216.091623,350.3116 216.099135,350.309097 216.104977,350.308262 C216.165074,350.292408 216.226005,350.276554 216.286101,350.261534 C216.292778,350.259031 216.30029,350.257362 216.307802,350.255693 C216.331173,350.249018 216.355379,350.243177 216.37875,350.236502 C216.384592,350.235667 216.390435,350.233998 216.396278,350.23233 C216.420483,350.226489 216.444689,350.219813 216.468894,350.213138 C216.474737,350.211469 216.483083,350.208966 216.489761,350.207297 C216.513966,350.201456 216.539006,350.19478 216.563212,350.188105 C216.567385,350.187271 216.573228,350.185602 216.577401,350.183933 C216.603276,350.177258 216.628316,350.170582 216.654191,350.163907 C216.659199,350.162238 216.665042,350.160569 216.67005,350.159735 C216.696759,350.152225 216.722634,350.145549 216.749344,350.13804 C216.752682,350.137205 216.756021,350.136371 216.75936,350.135536 C216.787738,350.128027 216.815283,350.119682 216.843661,350.112172 C216.845331,350.112172 216.847835,350.111338 216.849504,350.110504 C216.879552,350.102159 216.9096,350.09465 216.939649,350.086305 L216.940483,350.085471 C220.214064,349.184293 223.340743,347.953517 226.158593,346.399818 C226.159428,346.399818 226.159428,346.398984 226.160263,346.398984 C226.184468,346.385633 226.210343,346.371448 226.234549,346.358097 C226.237053,346.356428 226.241226,346.353925 226.24373,346.352256 C226.266266,346.340574 226.289637,346.327224 226.311338,346.314707 C226.315512,346.313038 226.32052,346.310535 226.323858,346.308032 C226.34556,346.29635 226.366427,346.284668 226.388128,346.272152 C226.393136,346.269648 226.398144,346.266311 226.403152,346.263807 C226.424854,346.251291 226.44572,346.239609 226.466587,346.227927 C226.471595,346.225424 226.476603,346.222086 226.480777,346.219583 C226.502478,346.207901 226.523345,346.196219 226.544212,346.183703 C226.550054,346.181199 226.553393,346.178696 226.559236,346.175358 C226.580937,346.163676 226.602639,346.15116 226.62434,346.138644 C226.627679,346.13614 226.632687,346.133637 226.636025,346.131968 C226.6619,346.116949 226.687775,346.101929 226.712815,346.087744 L548.555401,160.983214 C555.282852,157.114822 558.730044,152.155004 558.738391,147.447182 C558.746738,143.546248 556.392965,139.81804 551.568564,137.028559 L544.991354,133.214405 L548.588788,131.144198 C558.087347,125.679553 561.050431,118.034557 557.010621,112 L589.771471,129.045621 C600.622198,135.182812 600.772439,150.75484 590.038566,157.096465 L276.712132,342.270252 C275.174667,343.154742 273.539546,343.939935 271.833478,344.624998 C268.422176,345.995123 264.728755,346.965558 260.976073,347.526291 C259.099732,347.806658 257.209201,347.985225 255.331191,348.060323 C250.122842,348.268095 227.911403,350.608655 213,351" id="Fill-3" fill="#D8E7FE"></path>
                    <path d="M0.524299353,232 L0,204.557125 L28,198 C28,198 17.5433323,227.483094 16.8198337,226.916273 C16.0954727,226.349452 0.524299353,232 0.524299353,232" id="Fill-4" fill="#DAE2EC"></path>
                    <path d="M184.573397,347.824354 L7.16494638,244.988781 C-3.4622714,238.827913 -2.11217416,228.098151 10.1813874,221.023171 L331.930085,35.8331533 C344.221143,28.7573379 362.803755,28.0151954 373.425966,34.1752287 L550.832748,137.012472 C561.463303,143.172505 560.111537,153.902266 547.820479,160.978082 L226.07345,346.167264 C213.780723,353.242245 195.200615,353.985222 184.573397,347.824354" id="Fill-5" fill="#D8E7FE"></path>
                    <polyline id="Fill-7" fill="#9EBFFC" points="344 179.091419 376.662455 135.080615 558 119 557.924895 148.411178 359.663625 211 344 179.091419"></polyline>
                    <path d="M204,249.307507 L331.896224,35.8338935 C344.189124,28.7571803 362.774518,28.0149436 373.398321,34.1757585 L550.831674,137.02605 C561.463822,143.186865 560.111853,153.917988 547.818954,160.994701 L226.023735,346.207381 C219.87645,349.745738 212.156877,351.700267 204.645941,352 L204,249.307507" id="Fill-6" fill="#94BCFB"></path>
                    <path d="M175,326.702207 C174.995362,329.659437 172.977179,330.84841 170.491895,329.355393 C168.007383,327.863176 165.995376,324.255451 166,321.298221 C166.00464,318.340192 168.022824,317.152019 170.508108,318.644236 C172.993392,320.136453 175.003855,323.744177 175,326.702207" id="Fill-8" fill="#385192"></path>
                    <path d="M184.572381,317.82407 L7.16463724,214.988453 C-3.46253821,208.827583 -2.11161193,198.097817 10.1810662,191.022833 L331.922641,5.83273809 C344.221995,-1.24224549 362.796188,-1.98522312 373.426701,4.17564754 L550.832776,107.012099 C561.463289,113.172135 560.111529,123.901901 547.820519,130.977719 L226.073103,316.16698 C213.779591,323.242798 195.200391,323.984941 184.572381,317.82407" id="Fill-9" fill="#001F58"></path>
                    <path d="M112.990678,294.632398 L73.9969179,271.554278 C72.344647,270.576921 70.9966982,267.935439 71,265.68338 C71.0033139,263.432165 72.3570514,262.389763 74.0084954,263.36712 L113.003082,286.446085 C114.654526,287.423442 116.003302,290.064924 116,292.316139 C115.995859,294.568199 114.642949,295.6106 112.990678,294.632398" id="Fill-11" fill="#385192"></path>
                    <path d="M353.037806,9.2550392 C355.955578,7.57625695 359.556941,7.58208606 362.466377,9.27002832 L362.466377,9.27002832 L526.29508,104.08292 C532.580794,107.719448 532.564121,116.78787 526.270071,120.405246 L526.270071,120.405246 L477.980183,148.158021 C477.473791,148.621611 476.903745,149.041055 476.270071,149.405246 L476.270071,149.405246 L205.961046,304.744233 C203.040774,306.423848 199.443578,306.418019 196.527474,304.730077 L196.527474,304.730077 L32.7046054,209.916353 C26.4205592,206.279824 26.4347312,197.211402 32.7296149,193.594859 L32.7296149,193.594859 L81.0183412,165.842775 C81.5250077,165.378888 82.0954382,164.959207 82.7296149,164.594859 L82.7296149,164.594859 Z" id="Combined-Shape" fill="#619BFF"></path>
                    <g id="Path-2" transform="translate(28.000000, 8.000000)">
                        <mask id="mask-3" fill="white">
                            <use xlink:href="#path-2"></use>
                        </mask>
                        <use id="Mask" fill="url(#linearGradient-1)" xlink:href="#path-2"></use>
                    </g>
                    <path d="M543.352336,128.056835 L224.618902,309.678978 C218.316174,313.28625 210.211593,315.145472 202.532647,315.143812 C196.127266,315.145472 190.020663,313.849575 185.508103,311.248656 L16.4728075,213.890486 C11.9794431,211.295374 9.86378953,207.913764 9.8612858,204.408538 C9.8612858,202.283002 10.6424502,200.08031 12.2223051,197.945648 C13.80216,195.811816 16.1798709,193.753481 19.3454228,191.943208 C19.5515634,191.825399 19.6225025,191.564063 19.5039925,191.359142 C19.3854825,191.154221 19.1225906,191.083702 18.91645,191.20151 C15.668275,193.059073 13.1970915,195.186268 11.5287713,197.437909 C9.86212038,199.68872 9,202.070615 9,204.408538 C9,208.281294 11.3718708,211.94913 16.0413311,214.631353 L185.076627,311.989524 C189.773628,314.692488 196.011259,316 202.532647,316 C210.350133,316 218.579065,314.119208 225.047874,310.421505 L543.777971,128.799362 C543.986615,128.681553 544.061727,128.420217 543.944886,128.215296 C543.8197,128.010375 543.560981,127.939026 543.352336,128.056835" id="Fill-317" fill="#B3D5E6"></path>
                    <path d="M485.053249,181.235706 L485.053249,181.235706 C485.464246,184.593638 488.156689,185.963031 491.033662,184.279836 L510.459518,172.928844 C513.336491,171.244804 515.357921,167.1214 514.946925,163.763468 C514.535929,160.406383 511.843485,159.03699 508.958124,160.720185 L489.540656,172.07033 C486.655295,173.753525 484.642253,177.877775 485.053249,181.235706" id="Fill-13" fill="#E9F1F5"></path>
                    <path d="M450.053249,202.236466 L450.053249,202.236466 C450.464246,205.59361 453.156689,206.963027 456.033662,205.279803 L475.459518,193.928614 C478.336491,192.245391 480.357921,188.121069 479.946925,184.76308 C479.535929,181.406782 476.843485,180.036519 473.958124,181.720589 L454.540656,193.070931 C451.655295,194.754155 449.642253,198.879323 450.053249,202.236466" id="Fill-15" fill="#E9F1F5"></path>
                    <path d="M487.053075,183.235963 L487.053075,183.235963 C487.464071,186.593935 490.156515,187.963345 493.041876,186.279284 L512.459344,174.929001 C515.344705,173.24494 517.357747,169.12064 516.946751,165.763514 C516.535754,162.406388 513.843311,161.036978 510.966338,162.720193 L491.540482,174.070476 C488.663509,175.753691 486.642079,179.878837 487.053075,183.235963" id="Fill-14" fill="#467ED6"></path>
                    <path d="M452.053061,203.236512 L452.053061,203.236512 C452.463944,206.593615 455.155652,207.963015 458.040223,206.279812 L477.45238,194.92876 C480.336952,193.245557 482.357828,189.121285 481.946945,185.763336 C481.527676,182.407079 478.835968,181.036833 475.959783,182.720037 L456.53924,194.071088 C453.663054,195.754291 451.642177,199.878563 452.053061,203.236512" id="Fill-16" fill="#467ED6"></path>
                </g>
                <g id="house" transform="translate(39.000000, 0.000000)">
                    <polyline id="Fill-110" fill="#94BCFB" points="114 381.865707 114 253.603771 164.377333 224 185.772024 226.8086 267 306.884161 267 470 237.688609 453.10423 237.688609 453.164393 114 381.865707"></polyline>
                    <polyline id="Fill-111" fill="#3867D6" points="267 306.91987 287.67209 294.98359 287.67209 294.552231 289.422515 293.971498 436.589322 209 436.589322 241.934896 473 229.875153 473 351.20574 303.413726 449.125609 303.413726 448.976996 267 470 267 306.91987"></polyline>
                    <polyline id="Fill-112" fill="#001F58" points="392.503307 98 485 234.480617 268.64707 359 179 226.719325 392.503307 98"></polyline>
                    <polyline id="Fill-113" fill="#3867D6" points="178.447641 226.832967 90 264 129.485282 238.166368 310.000302 129.144188 392 98 178.447641 226.832967"></polyline>
                    <polyline id="Fill-114" fill="#FFFFFE" points="485 235 484.252681 242.602567 268 369 268.145651 359.604562 485 235"></polyline>
                    <polyline id="Fill-115" fill="#FFFFFE" points="268.853329 369 179 234.933984 179 227 269 359.584497 268.853329 369"></polyline>
                    <polyline id="Fill-116" fill="#FFFFFE" points="179 234.973515 91 271 91 264.404983 179 227 179 234.973515"></polyline>
                    <polyline id="Fill-117" fill="#FFFFFE" points="303.494975 295 428 223.072747 375.49971 149 251 220.927253 303.494975 295"></polyline>
                    <polyline id="Fill-118" fill="#457FDD" points="307.044386 289 421 222.984975 372.957133 155 259 221.015025 307.044386 289"></polyline>
                    <polyline id="Fill-120" fill="#265DB0" points="336 221 280.424493 252 258 221.673016 336 221"></polyline>
                    <polyline id="Fill-121" fill="#265DB0" points="361 257.334521 306.02236 289 283 255 361 257.334521"></polyline>
                    <path d="M393.877247,185.279676 L280.042081,251.102903 C279.046201,251.679166 278.704128,252.956371 279.279053,253.955329 C279.853978,254.954286 281.128219,255.296395 282.124857,254.720132 L395.955473,188.896905 C396.949077,188.320642 397.297976,187.044196 396.721534,186.045239 C396.145092,185.046282 394.870851,184.703413 393.877247,185.279676" id="Fill-123" fill="#FFFFFE"></path>
                    <path d="M275.528424,245 C275.346192,245 275.168574,244.907059 275.070922,244.740067 C274.924829,244.492223 275.011716,244.174863 275.264688,244.031295 L290.695965,235.283483 L291.311094,236.134311 L275.792161,244.930483 C275.709118,244.977331 275.618387,245 275.528424,245 M292.226099,235.612934 L291.61097,234.762861 L304.105776,227.681947 L304.713216,228.532775 L292.226099,235.612934 M305.635909,228.011397 L305.02078,227.161325 L315.854738,221.018135 L318,221 L305.635909,228.011397" id="Fill-126" fill="#A2AECD"></path>
                    <path d="M268.806502,235.9125 C268.596502,235.8895 268.399502,235.7695 268.285502,235.5725 C268.197502,235.4205 268.174502,235.2475 268.208502,235.0875 L268.806502,235.9125" id="Fill-130" fill="#FFFFFE"></path>
                    <path d="M294,221 L298.025076,218.661822 L298.63035,219.520044 L296.118461,220.980928 L294,221 M299.530696,218.994431 L298.925422,218.136209 L311.212495,210.987413 L311.817769,211.845635 L299.530696,218.994431 M312.725681,211.320021 L312.120406,210.461037 L328.38716,201 L329,201.852882 L312.725681,211.320021" id="Fill-131" fill="#B0BCD5"></path>
                    <path d="M268.505987,236 C268.487191,236 268.468395,235.999258 268.449599,235.997033 L268,235.385076 C268.029322,235.248591 268.115031,235.124716 268.247355,235.049055 L283.78258,226.2072 L284.382546,227.041687 L268.763115,235.931757 C268.681917,235.977747 268.5932,236 268.505987,236 M285.280241,226.53061 L284.680274,225.695381 L292.894854,221.018544 L295,221 L285.280241,226.53061" id="Fill-133" fill="#A2AECD"></path>
                    <path d="M261.595416,228 C261.390092,228 261.189966,227.904056 261.07994,227.731669 C260.915334,227.475819 261.013232,227.148206 261.297393,227 L262,227.872075 L261.892573,227.928237 C261.799008,227.976599 261.696779,228 261.595416,228" id="Fill-137" fill="#FFFFFE"></path>
                    <path d="M272,221 L278.442702,217.31229 L279.049271,218.16069 L274.12147,220.981147 L272,221 M279.957604,217.641092 L279.351035,216.792693 L291.698281,209.725714 L292.30637,210.574113 L279.957604,217.641092 M293.210902,210.054516 L292.602814,209.206116 L304.95462,202.139138 L305.555108,202.987537 L293.210902,210.054516 M306.467241,202.467939 L305.859153,201.61954 L322.102728,192.324099 L322.718419,193.167219 L306.467241,202.467939 M331.034035,187.210324 L338.391911,183 L339,183.848399 L333.154745,187.19147 L331.034035,187.210324" id="Fill-138" fill="#B0BCD5"></path>
                    <polyline id="Fill-140" fill="#A2AECD" points="262.624157 227 262 226.212399 271.849355 221.017612 274 221 262.624157 227"></polyline>
                    <path d="M293.656887,271 C293.428144,271 293.208933,270.900162 293.085031,270.721591 C292.923005,270.475649 292.999252,270.168019 293.256587,270 L294,270.918019 L293.980938,270.925325 C293.876098,270.976461 293.761727,271 293.656887,271" id="Fill-148" fill="#FFFFFE"></path>
                    <path d="M293.583483,271 L293,270.16271 C293.014961,270.149384 293.037403,270.137539 293.052364,270.126434 L308.806403,261.13241 L309.404847,261.965258 L293.583483,271 M310.302513,261.455185 L309.704069,260.621596 L316.047576,257 L318,257.057004 L310.302513,261.455185" id="Fill-150" fill="#A2AECD"></path>
                    <path d="M286.374861,262 C286.245146,262 286.119247,261.927305 286.050029,261.797281 C285.94702,261.602837 286.008062,261.35461 286.187374,261.242908 L286.575429,261 L287,261.671395 L286.561258,261.945626 C286.502396,261.982861 286.438084,262 286.374861,262" id="Fill-155" fill="#FFFFFE"></path>
                    <path d="M297.987606,256 L296,255.941618 L302.922353,251.961776 L303.531581,252.814762 L297.987606,256 M304.445423,252.292355 L303.836195,251.438611 L316.203524,244.334187 L316.812752,245.187173 L304.445423,252.292355 M317.718979,244.664767 L317.117366,243.811781 L329.484695,236.706599 L330.093923,237.559585 L317.718979,244.664767 M331.000149,237.037178 L330.390921,236.184193 L346.383157,227 L347,227.847678 L331.000149,237.037178" id="Fill-156" fill="#B0BCD5"></path>
                    <polyline id="Fill-157" fill="#A2AECD" points="287.592682 262 287 261.144686 296.014248 256 298 256.057975 287.592682 262"></polyline>
                    <path d="M274.109402,212 L273.094344,210.721224 C272.93113,210.515635 272.98479,210.230206 273.215823,210.084498 C273.305256,210.027279 273.408848,210 273.51095,210 C273.671183,210 273.829181,210.067199 273.929047,210.192947 L275,211.540918 L274.109402,212" id="Fill-201" fill="#FFFFFE"></path>
                    <path d="M307,257 L305.675503,256.960933 L303.211322,253.505405 L304.13539,252.977615 L307,257 M302.595277,252.643629 L298.213656,246.489403 L299.130023,245.961614 L303.519345,252.115074 L302.595277,252.643629 M280.252088,221.297217 L278.253022,218.493574 L279.173239,217.965784 L281.540393,221.286492 L280.252088,221.297217 M277.638517,217.631798 L274,212.528556 L274.920217,212 L278.558734,217.104009 L277.638517,217.631798" id="Fill-202" fill="#B0BCD5"></path>
                    <path d="M296.107151,243 L291.432825,236.195493 L292.325674,235.660986 L297,242.466268 L296.107151,243 M290.832591,235.323239 L285.241407,227.185563 L286.137257,226.651831 L291.72544,234.789507 L290.832591,235.323239 M284.642673,226.314085 L281,221.010845 L282.25524,221 L285.538523,225.779577 L284.642673,226.314085" id="Fill-203" fill="#A2AECD"></path>
                    <polyline id="Fill-206" fill="#D5DBE7" points="290.80402 236 290 235.379614 291.19598 235 292 235.619835 290.80402 236"></polyline>
                    <polyline id="Fill-207" fill="#D5DBE7" points="284.801205 227 284 226.380165 285.198795 226 286 226.620386 284.801205 227"></polyline>
                    <polyline id="Fill-208" fill="#DCE4EC" points="278.800803 218 278 217.379824 279.199197 217 280 217.620176 278.800803 218"></polyline>
                    <path d="M288.107991,204 L287.093972,202.721464 C286.931044,202.515807 286.985353,202.230283 287.215237,202.08386 C287.305257,202.027288 287.408667,202 287.51059,202 C287.670541,202 287.828261,202.067221 287.927952,202.192346 L289,203.540765 L288.107991,204" id="Fill-212" fill="#FFFFFE"></path>
                    <path d="M326,257 L324.706229,256.961137 L322.743008,254.154618 L323.638116,253.629586 L326,257 M322.141254,253.297346 L316.537422,245.292328 L317.43253,244.767296 L323.036363,252.772314 L322.141254,253.297346 M315.935668,244.435056 L311.648172,238.312989 L312.550803,237.787957 L316.838298,243.910024 L315.935668,244.435056 M299.357351,220.755291 L298.364457,219.326504 L299.259566,218.801472 L300.621034,220.743861 L299.357351,220.755291 M297.762703,218.469232 L292.158871,210.463452 L293.05398,209.93842 L298.657812,217.9442 L297.762703,218.469232 M291.557117,209.60618 L288,204.525794 L288.901879,204 L292.452226,209.081148 L291.557117,209.60618" id="Fill-213" fill="#B0BCD5"></path>
                    <polyline id="Fill-219" fill="#DCE4EC" points="291.80402 210 291 209.379824 292.19598 209 293 209.620176 291.80402 210"></polyline>
                    <g id="left-window" transform="translate(124.000000, 296.000000)">
                        <mask id="mask-5" fill="white">
                            <use xlink:href="#path-4"></use>
                        </mask>
                        <use id="Mask" fill="#001F58" xlink:href="#path-4"></use>
                        <polyline id="Fill-235" fill="#FFFFFE" mask="url(#mask-5)" points="27 59 27 14.9871576 5 2 5 46.0128424 27 59"></polyline>
                        <polyline id="Fill-236" fill="#001F58" mask="url(#mask-5)" points="27 53 27 19.7970035 10 10 10 43.2022314 27 53"></polyline>
                    </g>
                    <g id="right-window" transform="translate(217.000000, 345.000000)">
                        <mask id="mask-7" fill="white">
                            <use xlink:href="#path-6"></use>
                        </mask>
                        <use id="Mask" fill="#273676" xlink:href="#path-6"></use>
                        <polyline id="Fill-238" fill="#FFFFFE" mask="url(#mask-7)" points="27 59 27 14.9871576 5 2 5 46.0128424 27 59"></polyline>
                        <polyline id="Fill-239" fill="#273676" mask="url(#mask-7)" points="28 53 28 19.7970035 11 10 11 43.2029965 28 53"></polyline>
                    </g>
                    <polyline id="Fill-249" fill="#001F58" points="267 470.116148 267 456.96082 114 369 114.082334 393.052099 267 481"></polyline>
                    <polyline id="Fill-250" fill="#001F58" points="165 316 165 402.49959 196.490806 420.725655 196.490806 420.654683 204 425 204 338.50041 165 316"></polyline>
                    <polyline id="Fill-251" fill="#FFFFFE" points="176 396.782396 204 412 204 338.159711 176 322 176 396.782396"></polyline>
                    <polyline id="Fill-252" fill="#273676" points="202 365 183 354.377712 183 334 202 344.622288 202 365"></polyline>
                    <path d="M179.500424,372.809773 L179.500424,372.809773 C178.675615,372.401557 178,371.461974 178,370.72232 L178,364.792157 C178,364.053263 178.675615,363.781879 179.500424,364.190095 C180.324385,364.599072 181,365.537894 181,366.277549 L181,372.206951 C181,372.947366 180.324385,373.21799 179.500424,372.809773" id="Fill-253" fill="#273676"></path>
                    <path d="M161.500283,364.873182 L161.500283,364.873182 C160.95041,364.601038 160.5,363.97465 160.5,363.481546 L160.5,359.528105 C160.5,359.035508 160.95041,358.854586 161.500283,359.12673 C162.04959,359.399381 162.5,360.025262 162.5,360.518366 L162.5,364.4713 C162.5,364.96491 162.04959,365.145326 161.500283,364.873182" id="Fill-253" fill="#273676"></path>
                    <path d="M161.5,362.348708 C161.776142,362.541294 162,362.249701 162,361.697416 C162,361.145132 161.776142,360.541294 161.5,360.348708 C161.223858,360.156122 161,360.447715 161,361 C161,361.552285 161.223858,362.156122 161.5,362.348708 Z" id="Oval" fill="#FFFFFE"></path>
                    <path d="M94.8757196,156 L93.7514391,156 C93.7506779,168.637308 88.6324236,180.068127 80.3514169,188.351417 C72.0681267,196.632424 60.6373079,201.750678 47.9992388,201.751439 C35.3619309,201.750678 23.9311121,196.632424 15.6478219,188.351417 C7.3668152,180.068127 2.24856087,168.637308 2.24779968,156 C2.24856087,143.361931 7.3668152,131.931112 15.6478219,123.648583 C23.9311121,115.366815 35.3619309,110.248561 47.9992388,110.2478 C60.6373079,110.248561 72.0681267,115.366815 80.3514169,123.648583 C88.6324236,131.931112 93.7506779,143.361931 93.7514391,156 L96,156 C96,129.489209 74.5100303,108 47.9992388,108 C21.4892085,108 0,129.489209 0,156 C0,182.51003 21.4892085,204 47.9992388,204 C74.5100303,204 96,182.51003 96,156 L94.8757196,156" id="Fill-277" fill="#94BCFB"></path>
                    <path d="M256.880893,48.0007577 L255.761786,48.0007577 C255.761786,60.6406314 250.642079,72.0742541 242.359018,80.358895 C234.074443,88.6420205 222.64091,93.761768 210.000379,93.7625257 C197.359847,93.761768 185.926315,88.6420205 177.641739,80.358895 C169.358679,72.0742541 164.238214,60.6406314 164.238214,48.0007577 C164.238214,35.3601263 169.358679,23.9265036 177.641739,15.6418627 C185.926315,7.35873717 197.359847,2.23823204 210.000379,2.23823204 C222.64091,2.23823204 234.074443,7.35873717 242.359018,15.6418627 C250.642079,23.9265036 255.761786,35.3601263 255.761786,48.0007577 L258,48.0007577 C258,21.490513 236.510414,0 210.000379,0 C183.490343,0 162,21.490513 162,48.0007577 C162,74.5102447 183.490343,96 210.000379,96 C236.510414,96 258,74.5102447 258,48.0007577 L256.880893,48.0007577" id="Fill-280" fill="#94BCFB"></path>
                    <path d="M224.265531,31.1344439 C227.338919,31.1344439 229.832748,28.6407212 229.832748,25.5673338 C229.832748,22.4938395 227.338919,20.0001168 224.265531,20.0001168 C221.192144,20.0001168 218.698314,22.4938395 218.698314,25.5673338 C218.698314,28.6407212 221.192144,31.1344439 224.265531,31.1344439 Z M217.024902,70.6406211 C219.890542,67.6000247 221.651432,63.498472 221.651432,58.9922114 C221.651432,56.3016355 221.028082,53.7641202 219.923333,51.5000417 L224.418699,51.2485012 L223.324951,64.6469067 C222.963929,69.0218963 229.592103,69.6343521 229.953018,65.1827789 L231.363995,47.9781538 C231.528057,45.9766174 229.876434,44.2813089 227.853001,44.4015784 L216.248384,45.0469321 L222.635805,37.7735119 C224.23274,35.957934 223.740554,33.1250855 221.968662,32.0204434 C221.946766,31.9985471 206.710886,23.150088 206.710886,23.150088 C205.463971,22.4282574 203.899934,22.5813179 202.828082,23.5439011 L195.3906,30.1828623 C192.098463,33.1250855 196.539035,38.0797399 199.820277,35.1485182 L205.463971,30.1172802 L210.123399,32.8297524 L201.887502,42.2031889 C198.463988,42.7609573 195.3906,44.3359963 192.984356,46.6000748 L197.282762,50.8984807 C199.218716,49.1375901 201.799917,48.0547374 204.632766,48.0547374 C214.159263,48.0547374 219.059337,59.3750229 212.726496,66.3422152 L217.024902,70.6406211 Z M215.121846,72.3797222 L210.779647,68.0375237 C209.029652,69.2296442 206.91874,69.9296853 204.64366,69.9296853 C195.828099,69.9296853 190.709383,60.0203766 195.598455,52.8563312 L191.256256,48.5141327 C188.981283,51.390667 187.624994,55.0328244 187.624994,58.9813166 C187.624994,73.2765096 204.107788,81.009325 215.121846,72.3797222 Z" id="" fill="#94BCFB" fill-rule="nonzero"></path>
                    <path d="M455.797826,63.0000167 L455.797826,62.9868789 C455.796651,62.4652127 455.719,61.9467508 455.562628,61.4479421 C454.95124,59.500025 453.066662,54.3637916 448.762809,49.452823 C446.516247,46.8902071 445.315261,43.6396197 445.305435,40.2500709 C445.283539,32.1957536 451.831817,26.2501043 459.299954,26.2501043 C467.019632,26.2501043 473.299921,32.5303933 473.299921,40.2500709 C473.299921,43.6373767 472.070523,46.9054811 469.838168,49.452823 C465.56059,54.3320686 463.667253,59.4574073 463.046039,61.4249777 C462.889667,61.9185526 462.803791,62.4442777 462.803257,62.9891219 L462.803257,63.0000167 L468.053244,63.0000167 L468.053244,62.9945693 C469.111958,59.3447214 471.966596,54.9904533 473.78666,52.9145763 C476.750672,49.5304748 478.549908,45.1030409 478.549908,40.2500709 C478.549908,29.6188249 469.9312,21.0001168 459.299954,21.0001168 C448.113076,21.0001168 440.05,30.074909 440.05,40.2500709 C440.05,45.1030409 441.849236,49.5304748 444.814317,52.9135081 C446.634381,54.9904533 449.489019,59.3447214 450.547839,62.9935012 L450.547839,63.0000167 L455.797826,63.0000167 Z M450.549975,42.0000668 C451.516831,42.0000668 452.299979,41.2169265 452.299979,40.2500709 C452.299979,36.389164 455.441183,33.250096 459.299954,33.250096 C460.26681,33.250096 461.04995,32.4669474 461.04995,31.5000918 C461.04995,30.5332362 460.26681,29.750096 459.299954,29.750096 C453.509608,29.750096 448.799979,34.4597252 448.799979,40.2500709 C448.799979,41.2169265 449.583119,42.0000668 450.549975,42.0000668 Z M463.611498,76.9989152 C464.197785,76.9989152 464.744659,76.7057183 465.068403,76.2179112 L467.749153,72.1885629 C467.93949,71.9019883 468.041175,71.5651055 468.042243,71.2217073 L468.047797,66.4989402 L450.552111,66.4989402 L450.55649,71.2217073 C450.55649,71.5662804 450.658282,71.9019883 450.849687,72.1885629 L453.530437,76.2179112 C453.85525,76.7057183 454.402123,76.9989152 454.987342,76.9989152 L463.611498,76.9989152 Z" id="" fill="#94BCFB" fill-rule="nonzero"></path>
                    <g id="Group-15" transform="translate(23.000000, 133.000000)" fill="#94BCFB">
                        <path d="M24.5003877,23.7304615 C28.0946606,23.7304615 31.3195452,25.3322876 33.5130477,27.8625475 C34.8301177,29.3802864 37.1681936,29.3886256 38.4375336,27.8305804 L39.2690032,26.8111102 C40.25058,25.6067871 40.2512718,23.8513803 39.224732,22.6845837 C35.6207747,18.5886344 30.357337,16 24.5003877,16 C18.642055,16 13.379309,18.5886344 9.77466002,22.6845837 C8.74881192,23.8506853 8.74950366,25.6060922 9.73108049,26.8104152 L10.5625501,27.8305804 C11.8318901,29.3886256 14.169966,29.3802864 15.4863442,27.8618525 C17.6798468,25.3322876 20.9054231,23.7297666 24.5003877,23.7304615" id="Fill-281"></path>
                        <path d="M0.744073974,13.8191999 L1.59150476,14.8282623 C2.8012122,16.2682069 5.02501181,16.4051805 6.38725679,15.1008331 C11.1879522,10.5042989 17.7520098,7.65676044 24.9989553,7.65676044 C32.2444885,7.65676044 38.8092523,10.5042989 43.6099477,15.1015214 C44.9721927,16.4058689 47.1959923,16.2688952 48.4056997,14.8282623 L49.2651358,13.8047454 C50.3215995,12.5465147 50.2326192,10.7025322 49.0391542,9.567509 L49.0179684,9.54754801 C42.8048884,3.64941962 34.3369363,0 24.9989553,0 C15.6567372,0 7.17889837,3.64391314 0.965818362,9.54479477 C-0.238945732,10.6880777 -0.320864041,12.5506445 0.744073974,13.8191999" id="Fill-282"></path>
                        <path d="M21.1815624,44.5925796 C21.2701752,44.6671356 21.3566782,44.7438017 21.4516205,44.8141375 C21.6077478,44.930895 21.7723144,45.0349921 21.9418039,45.1355724 C22.0916017,45.2263056 22.2470257,45.3100053 22.4066694,45.3880781 C22.5536541,45.4598206 22.7013421,45.5287498 22.8574694,45.5885353 C23.0670457,45.6701248 23.2864678,45.7320204 23.5072965,45.7903992 C23.6352927,45.8227536 23.7569595,45.8635484 23.885659,45.8867593 C24.2471429,45.9556884 24.6184727,46 25.0003516,46 C25.3815273,46 25.7528571,45.9556884 26.114341,45.8867593 C26.2430405,45.8635484 26.3647073,45.8227536 26.4927035,45.7903992 C26.7142355,45.7320204 26.9329543,45.6701248 27.1425306,45.5885353 C27.2986579,45.5287498 27.4463459,45.4598206 27.5940339,45.3880781 C27.7529743,45.3100053 27.9083983,45.2263056 28.0581961,45.1355724 C28.2276856,45.0349921 28.3922522,44.930895 28.5483795,44.8141375 C28.6426185,44.7438017 28.7291215,44.6678389 28.8184376,44.5925796 C29.7376194,43.8266221 30.4176874,42.8018287 30.7517435,41.619483 L30.7517435,41.6159662 C30.8136318,41.3930016 30.8684874,41.1679269 30.9050577,40.9351152 C30.9613198,40.6312643 31,40.3217865 31,39.9996483 C31,39.5860735 30.9578034,39.180939 30.8769267,38.7912784 C30.3185255,36.055917 27.9006623,34 25.0003516,34 C22.0993377,34 19.6814745,36.055917 19.12237,38.790575 C19.0421966,39.180939 19,39.5860735 19,39.9996483 C19,40.3210832 19.0386802,40.6312643 19.0949423,40.9351152 C19.1315126,41.1679269 19.1856649,41.3930016 19.2482565,41.6159662 L19.2482565,41.6187797 C19.3783625,42.0815896 19.5759831,42.5099349 19.8059544,42.9178829 C20.1639219,43.553719 20.6210514,44.1262529 21.1815624,44.5925796" id="Fill-283"></path>
                    </g>
                    <path d="M47,223.127324 L47,352.872676 C47,353.495148 47.4475288,354 48,354 C48.5517942,354 49,353.495148 49,352.872676 L49,223.127324 C49,222.504852 48.5517942,222 48,222 C47.4475288,222 47,222.504852 47,223.127324" id="Fill-291" fill="#94BCFB"></path>
                    <path d="M209,110.123797 L209,185.876203 C209,186.497069 209.44768,187 210.000339,187 C210.55232,187 211,186.497069 211,185.876203 L211,110.123797 C211,109.502931 210.55232,109 210.000339,109 C209.44768,109 209,109.502931 209,110.123797" id="Fill-292" fill="#94BCFB"></path>
                    <polygon id="Fill-316" fill="#001F58" points="473 342 473 363.325689 267 482 267 457.4249"></polygon>
                    <polygon id="Fill-119" fill="#265DB0" points="338.218297 217 316.516129 187.651322 394.16994 185.105162"></polygon>
                    <polyline id="Fill-122" fill="#265DB0" points="421 223 365.425574 254 343 223.672282 421 223"></polyline>
                    <path d="M315,221 L316.667313,220.052606 L317.287708,220.912208 L317.163629,220.981678 L315,221 M318.218302,220.385454 L317.597906,219.526615 L334.37185,210 L335,210.853494 L318.218302,220.385454" id="Fill-124" fill="#B0BCD5"></path>
                    <polyline id="Fill-125" fill="#A2AECD" points="334.627049 210 334 209.161227 350.380692 200 351 200.844024 334.627049 210"></polyline>
                    <path d="M389.446729,179 L389,178.319007 L389.424393,178.05569 C389.485818,178.017554 389.552827,178 389.614252,178 C389.748271,178 389.876706,178.074455 389.949299,178.208232 C390.055397,178.40678 389.988388,178.661017 389.809696,178.775424 L389.446729,179" id="Fill-127" fill="#FFFFFE"></path>
                    <path d="M375,186 L377.555951,184.57799 L378.166328,185.40474 L377.128688,185.981628 L375,186 M379.074262,184.898402 L378.463886,184.071652 L389.389624,178 L390,178.82675 L379.074262,184.898402" id="Fill-128" fill="#B0BCD5"></path>
                    <path d="M352.603865,201 L352,200.154564 L364.258454,193.119275 L364.862319,193.96396 L352.603865,201 M365.768116,193.446637 L365.164251,192.601201 L374.894022,187.018771 L377,187 L365.768116,193.446637" id="Fill-129" fill="#A2AECD"></path>
                    <polyline id="Fill-132" fill="#A2AECD" points="328.623359 202 328 201.166045 344.392033 192 345 192.839176 328.623359 202"></polyline>
                    <path d="M383.667813,170 L383,169.139801 L383.135253,169.070283 C383.219786,169.022154 383.321226,169 383.422666,169 C383.625546,169 383.819973,169.093965 383.921413,169.262796 C384.082026,169.513369 383.989039,169.834225 383.710079,169.97861 L383.667813,170" id="Fill-134" fill="#FFFFFE"></path>
                    <path d="M352,187 L357.012668,184.193544 L357.628664,185.034212 L354.148286,186.982082 L352,187 M358.552658,184.51906 L357.936662,183.679139 L370.441381,176.682784 L371.057377,177.523452 L358.552658,184.51906 M371.973671,177.0083 L371.365375,176.168379 L382.391704,170 L383,170.840668 L371.973671,177.0083" id="Fill-135" fill="#B0BCD5"></path>
                    <polyline id="Fill-136" fill="#A2AECD" points="345.638978 192 345 191.168022 352.771565 187.017749 355 187 345.638978 192"></polyline>
                    <polyline id="Fill-139" fill="#A2AECD" points="322.612792 193 322 192.153458 330.889271 187.01893 333 187 322.612792 193"></polyline>
                    <path d="M376.725,160.8175 L376.275,160.1825 C376.425,160.2365 376.555,160.3395 376.635,160.4845 C376.695,160.5895 376.725,160.7035 376.725,160.8175" id="Fill-141" fill="#FFFFFE"></path>
                    <path d="M339.610558,183 L339,182.155893 L351.401955,175.131666 L352.004881,175.975023 L339.610558,183 M352.920717,175.458514 L352.310159,174.614407 L364.704482,167.59018 L365.31504,168.433537 L352.920717,175.458514 M366.230877,167.917027 L365.620319,167.07367 L376.213496,161.068968 C376.297448,161.02249 376.389032,161 376.472983,161 C376.541671,161 376.602727,161.011245 376.656151,161.031485 L376.999589,161.507514 C377.007221,161.68743 376.908006,161.864347 376.740102,161.961052 L366.230877,167.917027" id="Fill-142" fill="#B0BCD5"></path>
                    <path d="M339.02964,258 L337,257.940189 L341.981138,255.062261 L342.593129,255.936126 L339.02964,258 M343.522735,255.400932 L342.902998,254.527067 L359.372516,245 L360,245.867651 L343.522735,255.400932" id="Fill-143" fill="#B0BCD5"></path>
                    <path d="M300.513479,280 C300.333038,280 300.160116,279.908274 300.069896,279.744212 C299.927047,279.498864 300.009749,279.185655 300.257855,279.04471 L315.640434,270.24128 L316.241903,271.080235 L300.769104,279.931392 C300.69392,279.978374 300.6037,280 300.513479,280 M317.136589,270.565676 L316.542638,269.726721 L328.752466,262.739161 L329.353935,263.578116 L317.136589,270.565676 M330.248621,263.064303 L329.647151,262.225348 L337.030188,258 L339,258.057422 L330.248621,263.064303" id="Fill-144" fill="#A2AECD"></path>
                    <path d="M414.577195,214 L414,213.209972 L414.259738,213.064607 C414.339102,213.021067 414.418467,213 414.505046,213 C414.678204,213 414.844148,213.086376 414.937942,213.240871 C415.067811,213.47191 414.988447,213.766854 414.750354,213.899579 L414.577195,214" id="Fill-145" fill="#FFFFFE"></path>
                    <path d="M397,223 L401.707576,220.128863 L402.310146,221.024849 L399.108994,222.980089 L397,223 M403.214001,220.476107 L402.611431,219.580121 L413.39743,213 L414,213.895986 L403.214001,220.476107" id="Fill-146" fill="#B0BCD5"></path>
                    <path d="M359.611782,246 L359,245.145968 L375.268882,235.645336 L375.873112,236.505485 L359.611782,246 M376.771903,235.978692 L376.167674,235.118543 L388.441088,227.954458 L389.037764,228.814607 L376.771903,235.978692 M389.944109,228.287813 L389.339879,227.4269 L396.885196,223.019114 L399,223 L389.944109,228.287813" id="Fill-147" fill="#A2AECD"></path>
                    <path d="M317.998138,257 L316,256.941185 L321.940824,253.520751 L322.55328,254.38006 L317.998138,257 M323.464308,253.853781 L322.851852,252.994471 L335.292365,245.836613 L335.904821,246.695923 L323.464308,253.853781 M336.815849,246.169643 L336.203393,245.310334 L352.379888,236 L353,236.853963 L336.815849,246.169643" id="Fill-149" fill="#B0BCD5"></path>
                    <polyline id="Fill-151" fill="#A2AECD" points="353.612817 237 353 236.179088 369.394749 227 370 227.826052 353.612817 237"></polyline>
                    <path d="M407.817923,204.9905 L407.117923,204.0135 C407.147923,204.0105 407.167923,204.0095 407.197923,204.0095 C407.427923,204.0095 407.657923,204.1325 407.787923,204.3525 C407.907923,204.5555 407.907923,204.7935 407.817923,204.9905" id="Fill-152" fill="#FFFFFE"></path>
                    <path d="M375,223 L382.206544,218.77094 L382.819216,219.647288 L377.136691,222.981305 L375,223 M383.730564,219.110574 L383.117893,218.234226 L395.555117,210.934443 L396.167788,211.810791 L383.730564,219.110574 M397.086795,211.274077 L396.474124,210.397729 L407.257136,204.06855 C407.326062,204.029601 407.394987,204.007011 407.463913,204 L408,204.761059 C407.95405,204.856094 407.885124,204.938666 407.785565,204.994752 L397.086795,211.274077" id="Fill-153" fill="#B0BCD5"></path>
                    <polyline id="Fill-154" fill="#A2AECD" points="370.574844 227 370 226.115914 374.969854 223.018861 377 223 370.574844 227"></polyline>
                    <polyline id="Fill-158" fill="#B0BCD5" points="353 223 362.401645 217 363 217.931348 355.086761 222.979322 353 223"></polyline>
                    <polyline id="Fill-159" fill="#A2AECD" points="346.606489 228 346 227.135612 352.910982 223.019329 355 223 346.606489 228"></polyline>
                    <path d="M363.615499,218 L363,217.15001 L375.494636,210.070541 L376.110135,210.92053 L363.615499,218 M377.02569,210.399959 L376.410191,209.549214 L388.912521,202.469744 L389.52802,203.319733 L377.02569,210.399959 M390.443575,202.799162 L389.828076,201.949172 L400.206933,196.06951 C400.291564,196.022666 400.383889,196 400.46852,196 C400.65317,196 400.830126,196.092932 400.930145,196.259908 C401.076326,196.507727 400.984001,196.825057 400.737801,196.96861 L390.443575,202.799162" id="Fill-160" fill="#B0BCD5"></path>
                    <path d="M367.620633,254.703722 L319.77276,186.880351 C319.10726,185.939912 317.814075,185.717916 316.876326,186.384663 C315.938577,187.052169 315.719265,188.355251 316.384764,189.29645 L364.232637,257.119822 C364.890574,258.060261 366.191322,258.282257 367.129071,257.61475 C368.059257,256.948004 368.278569,255.644161 367.620633,254.703722" id="Fill-161" fill="#FFFFFE"></path>
                    <path d="M383.599519,246 C383.477287,246 383.355055,245.93849 383.273567,245.823386 L383,245.420219 L383.698469,245 L383.925471,245.339829 C384.053523,245.528015 384.012779,245.789281 383.832342,245.922655 C383.762495,245.97503 383.681007,246 383.599519,246" id="Fill-162" fill="#FFFFFE"></path>
                    <polyline id="Fill-163" fill="#B0BCD5" points="382.846154 245 382 244.353154 383.153846 244 384 244.643226 382.846154 245"></polyline>
                    <path d="M382.102417,245 L376.170886,236.435391 L377.06099,235.907714 L383,244.476918 L382.102417,245 M375.572497,235.573799 L370,227.528443 L370.890104,227 L376.462601,235.046122 L375.572497,235.573799" id="Fill-164" fill="#A2AECD"></path>
                    <polyline id="Fill-165" fill="#D5DBE7" points="375.80402 236 375 235.379824 376.19598 235 377 235.620176 375.80402 236"></polyline>
                    <polyline id="Fill-166" fill="#B0BCD5" points="366.869712 223 364 218.517785 364.812183 218 368 222.988744 366.869712 223"></polyline>
                    <polyline id="Fill-167" fill="#A2AECD" points="369.183673 226 367 223.009897 368.136054 223 370 225.544755 369.183673 226"></polyline>
                    <polyline id="Fill-168" fill="#B0BCD5" points="362.130435 218 358 211.553709 358.869565 211 363 217.447094 362.130435 218"></polyline>
                    <path d="M356.081633,208 L351.313776,201.339967 L352.232143,200.817626 L357,207.476901 L356.081633,208 M350.701531,200.487088 L345,192.522341 L345.918367,192 L351.619898,199.96399 L350.701531,200.487088" id="Fill-169" fill="#A2AECD"></path>
                    <polyline id="Fill-170" fill="#B0BCD5" points="340.585263 187 338 183.54813 339.002105 183 342 186.988067 340.585263 187"></polyline>
                    <polyline id="Fill-171" fill="#A2AECD" points="344.145422 192 341 187.012134 342.206463 187 345 191.442647 344.145422 192"></polyline>
                    <path d="M338.148181,182 L335.091656,177.762628 C334.934177,177.545237 334.984284,177.243422 335.206186,177.088645 C335.292084,177.028845 335.392298,177 335.492512,177 C335.642833,177 335.793154,177.071057 335.893368,177.203321 L339,181.514563 L338.148181,182" id="Fill-172" fill="#B0BCD5"></path>
                    <polyline id="Fill-173" fill="#FFFFFE" points="358.179954 211 356 207.531689 356.820046 207 359 210.468311 358.179954 211"></polyline>
                    <polyline id="Fill-174" fill="#D5DBE7" points="350.8 201 350 200.380165 351.2 200 352 200.620386 350.8 201"></polyline>
                    <polyline id="Fill-175" fill="#D5DBE7" points="344.79397 192 344 191.379824 345.19598 191 346 191.620176 344.79397 192"></polyline>
                    <polyline id="Fill-176" fill="#DCE4EC" points="338.80402 183 338 182.380165 339.19598 182 340 182.620386 338.80402 183"></polyline>
                    <polyline id="Fill-177" fill="#D5DBE7" points="369.80402 227 369 226.380165 370.20603 226 371 226.619835 369.80402 227"></polyline>
                    <polyline id="Fill-178" fill="#DCE4EC" points="362.8 218 362 217.379614 363.2 217 364 217.619835 362.8 218"></polyline>
                    <path d="M396.60049,238 C396.47223,238 396.3498,237.93849 396.27401,237.823386 L396,237.41961 L396.69377,237 L396.926971,237.339829 C397.055231,237.528015 397.008591,237.789281 396.83369,237.922655 C396.7579,237.97503 396.68211,238 396.60049,238" id="Fill-179" fill="#FFFFFE"></path>
                    <path d="M396.090544,238 L395.471503,237.132854 L396.388601,236.61545 L397,237.477285 L396.090544,238 M385.322282,222.924714 L383.052463,219.747456 L383.961919,219.224741 L386.598577,222.914093 L385.322282,222.924714 M382.441065,218.893966 L376.747413,210.924268 L377.656868,210.401553 L383.35052,218.371251 L382.441065,218.893966 M376.136014,210.070778 L371.779797,203.975723 L372.696895,203.453008 L377.04547,209.547305 L376.136014,210.070778 M359.658814,187.009863 L358.275525,185.07301 L359.192623,184.549536 L360.942752,186.998483 L359.658814,187.009863 M357.664126,184.218761 L351.970474,176.249063 L352.887572,175.726348 L358.581224,183.696046 L357.664126,184.218761 M351.366717,175.395573 L348.095734,170.823144 C347.927599,170.58796 347.988739,170.262496 348.218013,170.09635 C348.317366,170.031864 348.416718,170 348.523713,170 C348.691847,170 348.85234,170.076624 348.951692,170.220011 L352.276173,174.872099 L351.366717,175.395573" id="Fill-180" fill="#B0BCD5"></path>
                    <path d="M369.048306,200 L364.107426,193.12021 L365.05912,192.580634 L370,199.460424 L369.048306,200 M363.472963,192.23919 L359,186.011747 L360.332372,186 L364.424658,191.698831 L363.472963,192.23919" id="Fill-181" fill="#A2AECD"></path>
                    <path d="M395.088398,237 L389.003453,228.57027 L389.915055,228.055597 L396,236.490556 L395.088398,237 M388.403315,227.729911 L385,223.010458 L386.268646,223 L389.30732,227.214492 L388.403315,227.729911" id="Fill-182" fill="#A2AECD"></path>
                    <polyline id="Fill-183" fill="#FFFFFE" points="371.179954 204 369 200.531021 369.820046 200 372 203.468979 371.179954 204"></polyline>
                    <polyline id="Fill-184" fill="#D5DBE7" points="364.8 193 364 192.380165 365.2 192 366 192.620386 364.8 193"></polyline>
                    <polyline id="Fill-185" fill="#DCE4EC" points="357.8 185 357 184.379614 358.2 184 359 184.619835 357.8 185"></polyline>
                    <polyline id="Fill-186" fill="#DCE4EC" points="351.79397 176 351 175.380165 352.19598 175 353 175.620386 351.79397 176"></polyline>
                    <polyline id="Fill-187" fill="#D5DBE7" points="388.79397 228 388 227.380165 389.19598 227 390 227.620386 388.79397 228"></polyline>
                    <polyline id="Fill-188" fill="#DCE4EC" points="382.80402 219 382 218.379824 383.19598 218 384 218.620176 382.80402 219"></polyline>
                    <polyline id="Fill-189" fill="#DCE4EC" points="376.80402 210 376 209.380165 377.19598 209 378 209.620386 376.80402 210"></polyline>
                    <path d="M409.599519,231 C409.477287,231 409.355055,230.939136 409.273567,230.824102 L409,230.419963 L409.698469,230 L409.925471,230.340231 C410.053523,230.528911 410.012779,230.78941 409.832342,230.923311 C409.762495,230.975046 409.681007,231 409.599519,231" id="Fill-190" fill="#FFFFFE"></path>
                    <path d="M409.082941,230 L408.525064,229.214781 L409.442123,228.696612 L410,229.47652 L409.082941,230 M403.657012,222.398166 L402.350203,220.575091 L403.267262,220.05237 L404.933252,222.386786 L403.657012,222.398166 M401.738831,219.721592 L396.045426,211.751046 L396.962484,211.228325 L402.65589,219.198871 L401.738831,219.721592 M395.434054,210.897547 L389.748291,202.927759 L390.657707,202.405038 L396.351112,210.374826 L395.434054,210.897547 M389.136918,202.07426 L384.78089,195.979137 L385.690307,195.456416 L390.046335,201.551539 L389.136918,202.07426 M377.994657,186.482913 L377.581981,185.899499 L378.491397,185.376778 L379.278539,186.471533 L377.994657,186.482913 M376.970608,185.046 L371.277203,177.076212 L372.18662,176.552733 L377.880025,184.523279 L376.970608,185.046 M370.665831,176.221954 L364.972426,168.252167 L365.889484,167.729446 L371.582889,175.699234 L370.665831,176.221954 M364.361053,167.398668 L361.097854,162.822394 C360.929726,162.587966 360.983221,162.262498 361.220128,162.096351 C361.311834,162.031105 361.418824,162 361.525814,162 C361.686299,162 361.846785,162.076625 361.953775,162.220013 L365.278112,166.875947 L364.361053,167.398668" id="Fill-191" fill="#B0BCD5"></path>
                    <polyline id="Fill-192" fill="#A2AECD" points="382.135174 193 378 187.011207 379.22093 187 383 192.485245 382.135174 193"></polyline>
                    <polyline id="Fill-193" fill="#A2AECD" points="409.048877 229 404 222.011667 405.323646 222 410 228.468778 409.048877 229"></polyline>
                    <polyline id="Fill-194" fill="#FFFFFE" points="385.184932 196 383 192.531021 383.815068 192 386 195.468979 385.184932 196"></polyline>
                    <polyline id="Fill-195" fill="#DCE4EC" points="377.80402 186 377 185.379824 378.19598 185 379 185.620176 377.80402 186"></polyline>
                    <polyline id="Fill-196" fill="#DCE4EC" points="371.80402 177 371 176.379614 372.20603 176 373 176.619835 371.80402 177"></polyline>
                    <polyline id="Fill-197" fill="#DCE4EC" points="364.8 168 364 167.379824 365.2 167 366 167.620176 364.8 168"></polyline>
                    <polyline id="Fill-198" fill="#DCE4EC" points="402.8 221 402 220.379824 403.2 220 404 220.620176 402.8 221"></polyline>
                    <polyline id="Fill-199" fill="#DCE4EC" points="395.8 212 395 211.379824 396.2 211 397 211.620176 395.8 212"></polyline>
                    <polyline id="Fill-200" fill="#DCE4EC" points="389.80402 203 389 202.379824 390.19598 202 391 202.620176 389.80402 203"></polyline>
                    <path d="M322.468765,279 C322.306625,279 322.136765,278.921454 322.036392,278.774472 L316.26885,270.581572 L317.187642,270.04497 L322.901138,278.156991 C323.070998,278.397295 323.016952,278.730921 322.777603,278.901234 C322.684951,278.968115 322.576858,279 322.468765,279 M315.651175,269.706678 L309.899075,261.536331 L310.825588,261.000507 L316.577688,269.170076 L315.651175,269.706678 M309.2814,260.661437 L306,256 L307.328002,256.039662 L310.207912,260.124835 L309.2814,260.661437" id="Fill-204" fill="#A2AECD"></path>
                    <polyline id="Fill-205" fill="#FFFFFE" points="298.184932 246 296 242.531021 296.815068 242 299 245.468979 298.184932 246"></polyline>
                    <polyline id="Fill-209" fill="#D5DBE7" points="315.80402 270 315 269.380165 316.20603 269 317 269.619835 315.80402 270"></polyline>
                    <polyline id="Fill-210" fill="#D5DBE7" points="309.8 262 309 261.380165 310.2 261 311 261.620386 309.8 262"></polyline>
                    <polyline id="Fill-211" fill="#DCE4EC" points="302.8 253 302 252.380165 303.2 252 304 252.620386 302.8 253"></polyline>
                    <path d="M309.080139,235 L304.30453,228.372352 L305.22439,227.851738 L310,234.48014 L309.080139,235 M303.698955,227.52277 L299,221.011318 L300.287805,221 L304.61115,227.00291 L303.698955,227.52277" id="Fill-214" fill="#A2AECD"></path>
                    <path d="M335.472507,271 C335.31151,271 335.150512,270.925405 335.043181,270.78442 L329.323934,262.928815 L330.236254,262.414855 L335.901834,270.19139 C336.070498,270.422634 336.016832,270.741901 335.779169,270.90601 C335.687171,270.969416 335.579839,271 335.472507,271 M328.71061,262.089621 L325,257 L326.318647,257.038043 L329.62293,261.575661 L328.71061,262.089621" id="Fill-215" fill="#A2AECD"></path>
                    <polyline id="Fill-216" fill="#FFFFFE" points="311.179954 238 309 234.531021 309.820046 234 312 237.468979 311.179954 238"></polyline>
                    <polyline id="Fill-217" fill="#D5DBE7" points="304.79397 228 304 227.379614 305.19598 227 306 227.619835 304.79397 228"></polyline>
                    <polyline id="Fill-218" fill="#DCE4EC" points="297.80402 219 297 218.379824 298.19598 218 299 218.620176 297.80402 219"></polyline>
                    <polyline id="Fill-220" fill="#D5DBE7" points="328.80402 263 328 262.379824 329.19598 262 330 262.620176 328.80402 263"></polyline>
                    <polyline id="Fill-221" fill="#DCE4EC" points="322.80402 254 322 253.379824 323.19598 253 324 253.620176 322.80402 254"></polyline>
                    <polyline id="Fill-222" fill="#DCE4EC" points="316.80402 245 316 244.379824 317.20603 244 318 244.620176 316.80402 245"></polyline>
                    <path d="M301.106043,197 L300.092892,195.721704 C299.929,195.515313 299.988597,195.23036 300.219536,195.084554 C300.308932,195.027297 300.413227,195 300.510072,195 C300.673964,195 300.830406,195.067244 300.927252,195.19241 L302,196.540613 L301.106043,197" id="Fill-223" fill="#FFFFFE"></path>
                    <path d="M345,257 L343.699433,256.961286 L342.164461,254.795565 L343.071834,254.272543 L345,257 M341.567108,253.941574 L335.933837,245.966438 L336.833648,245.443416 L342.466919,253.418552 L341.567108,253.941574 M335.328922,245.112447 L329.695652,237.13807 L330.595463,236.615048 L336.228733,244.589425 L335.328922,245.112447 M329.090737,236.284079 L324.780718,230.185445 L325.688091,229.662423 L329.990548,235.761057 L329.090737,236.284079 M317.703214,220.168322 L317.657845,220.100762 L318.565217,219.576981 L318.973535,220.156935 L317.703214,220.168322 M317.05293,219.246012 L311.41966,211.271634 L312.327032,210.748612 L317.960302,218.72299 L317.05293,219.246012 M310.814745,210.417644 L305.181474,202.442507 L306.088847,201.919485 L311.722117,209.893862 L310.814745,210.417644 M304.584121,201.588516 L301,196.523781 L301.907372,196 L305.483932,201.065494 L304.584121,201.588516" id="Fill-224" fill="#B0BCD5"></path>
                    <polyline id="Fill-225" fill="#A2AECD" points="323.023066 227 318 220.012055 319.367707 220 324 226.446269 323.023066 227"></polyline>
                    <path d="M348.485616,264 C348.321144,264 348.164147,263.923898 348.066959,263.781489 L344,258 L345.285877,258.038428 L348.904274,263.183222 C349.068746,263.416049 349.016414,263.739294 348.784657,263.904307 C348.694945,263.969107 348.590281,264 348.485616,264" id="Fill-226" fill="#A2AECD"></path>
                    <polyline id="Fill-227" fill="#FFFFFE" points="325.179954 231 323 227.531021 323.820046 227 326 230.468979 325.179954 231"></polyline>
                    <polyline id="Fill-228" fill="#DCE4EC" points="317.8 220 317 219.379614 318.2 219 319 219.619835 317.8 220"></polyline>
                    <polyline id="Fill-229" fill="#DCE4EC" points="311.8 212 311 211.380165 312.2 211 313 211.620386 311.8 212"></polyline>
                    <polyline id="Fill-230" fill="#DCE4EC" points="304.79397 203 304 202.379824 305.19598 202 306 202.620176 304.79397 203"></polyline>
                    <polyline id="Fill-231" fill="#DCE4EC" points="342.79397 255 342 254.379824 343.19598 254 344 254.620176 342.79397 255"></polyline>
                    <polyline id="Fill-232" fill="#DCE4EC" points="335.80402 246 335 245.379824 336.19598 245 337 245.620176 335.80402 246"></polyline>
                    <polyline id="Fill-233" fill="#DCE4EC" points="329.80402 237 329 236.379824 330.19598 236 331 236.620176 329.80402 237"></polyline>
                    <polyline id="Fill-240" fill="#001F58" points="307 403 334 387.461945 334 344 307 359.538055 307 403"></polyline>
                    <polyline id="Fill-241" fill="#FFFFFE" points="307 403 307 358.986392 329 346 329 390.012842 307 403"></polyline>
                    <polyline id="Fill-242" fill="#001F58" points="307 397 307 363.797594 324 354 324 387.202406 307 397"></polyline>
                    <polyline id="Fill-243" fill="#001F58" points="367 369 394 353.462144 394 310 367 325.5371 367 369"></polyline>
                    <polyline id="Fill-244" fill="#FFFFFE" points="367 370 367 325.986983 389 313 389 357.013017 367 370"></polyline>
                    <polyline id="Fill-245" fill="#001F58" points="367 364 367 330.797003 384 321 384 354.202997 367 364"></polyline>
                    <polyline id="Fill-246" fill="#001F58" points="426 336 453 320.4629 453 277 426 292.537856 426 336"></polyline>
                    <polyline id="Fill-247" fill="#FFFFFE" points="426 336 426 291.986983 448 279 448 323.013017 426 336"></polyline>
                    <polyline id="Fill-248" fill="#001F58" points="426 330 426 296.797178 443 287 443 320.203587 426 330"></polyline>
                    <g id="Group-13" transform="translate(514.000000, 127.000000)">
                        <path d="M95,47.5 C95,73.7331854 73.7346926,95 47.5029527,95 C21.2653074,95 0,73.7331854 0,47.5 C0,21.2662241 21.2653074,0 47.5029527,0 C73.7346926,0 95,21.2662241 95,47.5" id="Fill-278" stroke="#94BCFB" stroke-width="2"></path>
                        <path d="M60.7868394,69 L33.2184602,69 C30.8972472,69 29,67.1259881 29,64.8351801 L29,42.1648199 C29,39.8745355 30.8972472,38 33.2184602,38 L60.7868394,38 C63.1027528,38 65,39.8745355 65,42.1648199 L65,64.8351801 C65,67.1259881 63.1027528,69 60.7868394,69" id="Fill-286" fill="#94BCFB"></path>
                        <path d="M52,52.7755303 C52,50.1379258 49.7630883,48 47.0026441,48 C44.2421999,48 42,50.1379258 42,52.7755303 C42,54.0543688 42.5288207,55.2151688 43.3855103,56.0716095 C43.8984664,56.5845212 44.1575886,57.3001626 44.1575886,58.0253318 L44.1575886,59.1549019 C44.1575886,60.7259254 45.4320465,62 47.0026441,62 C48.5732417,62 49.8424114,60.7259254 49.8424114,59.1549019 L49.8424114,58.0253318 C49.8424114,57.3001626 50.1015336,56.5845212 50.6144897,56.0716095 C51.4711793,55.2151688 52,54.0543688 52,52.7755303" id="Fill-287" fill="#FFFFFF"></path>
                        <path d="M38.4492508,35 C39.1811092,35 39.8440245,34.5307249 40.0349441,33.8429676 C40.5599729,31.9397109 41.3872912,30.1739031 42.6919084,28.7747966 C43.2222406,28.1993576 43.5298333,27.9485647 43.9381891,27.696746 C44.1874452,27.5433982 44.4420047,27.406975 44.7018675,27.2720905 C44.7867206,27.2274709 44.8450572,27.1961859 44.8874837,27.1725939 C44.8927871,27.1736197 44.924607,27.1679781 44.9882469,27.1474634 C45.3011429,27.046941 45.6193422,26.9705236 45.9375415,26.9012863 C46.0807312,26.8807715 46.3193807,26.8494865 46.4413571,26.8566667 C46.7595564,26.8746171 47.0830591,26.8864131 47.4012584,26.9094922 C47.4808082,26.9146208 47.5338415,26.9176981 47.5709647,26.9202624 L47.592178,26.9228267 C47.8467375,26.9664206 48.1012969,27.0110402 48.3505531,27.070533 C49.5331939,27.3500466 50.1801992,27.6454591 51.0075174,28.3762974 C52.5932107,29.7820712 53.5106854,31.7145614 54.0516243,33.8096311 C54.2266339,34.5112359 54.8895492,35 55.6373176,35 L57.3555939,35 C58.4056517,35 59.1958467,34.0517053 58.9571972,33.0608425 C57.7374331,28.0383167 55.0804688,23.4794245 49.5066773,22.283927 C44.940517,21.3043473 40.7986224,22.8885995 38.0196817,26.5863847 C36.5771781,28.5081047 35.6490967,30.7160056 35.0498213,33.0341733 C34.7899585,34.0327291 35.5801535,35 36.6408179,35 L38.4492508,35" id="Fill-289" fill="#94BCFB"></path>
                    </g>
                    <g id="lock-highlight" transform="translate(412.000000, 1.000000)" fill="#94BCFB">
                        <path d="M94.8786109,48 L93.7572218,48 C93.7572218,60.6406314 88.6352013,72.0742541 80.3535912,80.358895 C72.0719811,88.6420205 60.6383583,93.761768 48,93.7625257 C35.3540647,93.761768 23.920442,88.6420205 15.6388319,80.358895 C7.35722178,72.0742541 2.23520126,60.6406314 2.23520126,48 C2.23520126,35.3593686 7.35722178,23.9265036 15.6388319,15.641105 C23.920442,7.35797948 35.3540647,2.23823204 48,2.23747435 C60.6383583,2.23823204 72.0719811,7.35797948 80.3535912,15.641105 C88.6352013,23.9265036 93.7572218,35.3593686 93.7572218,48 L96,48 C95.992423,21.4897553 74.5041831,0 48,0 C21.4882399,0 0,21.4897553 0,48 C0,74.5102447 21.4882399,96 48,96 C74.5041831,96 95.992423,74.5102447 96,48 L94.8786109,48" id="Fill-279"></path>
                    </g>
                    <path d="M460,110.129091 L460,172.870909 C460,173.494357 460.447458,174 460.99661,174 C461.552542,174 462,173.494357 462,172.870909 L462,110.129091 C462,109.505643 461.552542,109 460.99661,109 C460.447458,109 460,109.505643 460,110.129091" id="Fill-293" fill="#94BCFB"></path>
                    <path d="M560,234.911522 L560,361.089095 C560,361.592068 560.447458,362 561.00339,362 C561.552542,362 562,361.592068 562,361.089095 L562,234.911522 C562,234.407932 561.552542,234 561.00339,234 C560.447458,234 560,234.407932 560,234.911522" id="Fill-294" fill="#94BCFB"></path>
                    <g id="ramp-&amp;-rail" transform="translate(74.000000, 347.952743)">
                        <polygon id="Path-3" fill="#417BD7" points="40.4352535 28.9119689 128.371846 79.5665739 193.236826 133.799142 150.300653 159.047257 86.3479741 103.855419 0 51.1221888"></polygon>
                        <polygon id="Rectangle" fill="#417BD7" transform="translate(98.993065, 69.048853) rotate(30.000000) translate(-98.993065, -69.048853) " points="92.2018547 49.236201 124.56367 49.4856405 128.561357 56.4098382 109.232585 88.809754 69.4247731 88.8615055"></polygon>
                        <path d="M5.78638605,20.8086654 L5.78638605,51.4720788 C5.78638605,51.619191 6.29084413,51.7385053 6.9135942,51.7385053 C7.53558109,51.7385053 8.04080235,51.619191 8.04080235,51.4720788 L8.04080235,20.8086654 C8.04080235,20.6615533 7.53558109,20.542239 6.9135942,20.542239 C6.29084413,20.542239 5.78638605,20.6615533 5.78638605,20.8086654" id="Fill-291" fill="#C2DAFF"></path>
                        <path d="M54.6295287,48.9548954 L54.6295287,78.8704206 C54.6295287,79.0139446 55.1339867,79.1303488 55.7567368,79.1303488 C56.3787237,79.1303488 56.883945,79.0139446 56.883945,78.8704206 L56.883945,48.9548954 C56.883945,48.8113713 56.3787237,48.6949671 55.7567368,48.6949671 C55.1339867,48.6949671 54.6295287,48.8113713 54.6295287,48.9548954" id="Fill-291" fill="#C2DAFF"></path>
                        <path d="M28.6816091,33.7372045 L28.6816091,63.6527297 C28.6816091,63.7962538 29.1860672,63.912658 29.8088173,63.912658 C30.4308042,63.912658 30.9360254,63.7962538 30.9360254,63.6527297 L30.9360254,33.7372045 C30.9360254,33.5936804 30.4308042,33.4772762 29.8088173,33.4772762 C29.1860672,33.4772762 28.6816091,33.5936804 28.6816091,33.7372045" id="Fill-291" fill="#C2DAFF"></path>
                        <path d="M42.418743,1.80604647 L42.418743,34.7131242 C42.418743,34.8710007 42.9232011,34.9990453 43.5459512,34.9990453 C44.167938,34.9990453 44.6731593,34.8710007 44.6731593,34.7131242 L44.6731593,1.80604647 C44.6731593,1.64816999 44.167938,1.52012537 43.5459512,1.52012537 C42.9232011,1.52012537 42.418743,1.64816999 42.418743,1.80604647" id="Fill-291" fill="#C2DAFF"></path>
                        <polygon id="Path-3" fill="#3867D6" points="128.371846 79.5665739 194 133.914036 150.300653 159.047257 86.3479741 103.855419"></polygon>
                        <polygon id="Path-4" fill="#94BCFB" points="0 51.1221888 86.3479741 103.855419 150.300653 159.047257 0 66.9561961"></polygon>
                        <path d="M149.263117,153.521583 C149.263117,153.618461 149.767576,153.697034 150.390326,153.697034 C151.012312,153.697034 151.517534,153.618461 151.517534,153.521583 L151.517534,133.328603 C151.517534,133.231724 151.012312,133.153151 150.390326,133.153151 C149.767576,133.153151 149.263117,133.231724 149.263117,133.328603 L149.263117,153.521583 Z" id="Fill-291" fill="#C2DAFF"></path>
                        <path d="M45.5237841,90.7215871 C45.5243743,91.1711018 46.0281875,91.5371577 46.6495506,91.5371577 C47.2701522,91.5371577 47.7737695,91.1740595 47.7731798,90.7245448 L47.6501612,-2.97031481 C47.649571,-3.41982952 47.1449963,-3.78588546 46.5243947,-3.78588546 C45.9030317,-3.78588546 45.4001758,-3.4227872 45.4007655,-2.97327249 L45.5237841,90.7215871 Z" id="Fill-291" fill="#C2DAFF" transform="translate(46.586973, 43.875636) rotate(120.500000) translate(-46.586973, -43.875636) "></path>
                        <path d="M118.453207,149.022918 C118.453887,149.475577 118.958166,149.844394 119.580014,149.844394 C120.201101,149.844394 120.705039,149.478956 120.70436,149.026298 L121.20892,54.6561751 C121.20824,54.2035166 120.703199,53.8346996 120.082113,53.8346996 C119.460264,53.8346996 118.957088,54.200137 118.957767,54.6527955 L118.453207,149.022918 Z" id="Fill-291" fill="#C2DAFF" transform="translate(119.831063, 101.839547) rotate(136.000000) translate(-119.831063, -101.839547) "></path>
                        <path d="M24.3880091,-10.4708895 L24.3361204,32.2605711 C24.3358715,32.4655815 24.8389262,32.6312416 25.4601931,32.6304884 C26.0806986,32.629731 26.5849184,32.4628457 26.5851674,32.2578353 L26.6370561,-10.4736253 C26.637305,-10.6786357 26.1334889,-10.8442948 25.5129834,-10.8435426 C24.8917165,-10.8427843 24.388258,-10.6758999 24.3880091,-10.4708895" id="Fill-291" fill="#C2DAFF" transform="translate(25.486588, 10.893473) rotate(63.000000) translate(-25.486588, -10.893473) "></path>
                        <path d="M45.1935214,101.578312 C45.1940974,102.017039 45.6978991,102.374345 46.3192622,102.374345 C46.9398638,102.374345 47.4434926,102.019996 47.442917,101.58127 L47.3228509,10.1350872 C47.3222748,9.6963608 46.8177116,9.33905464 46.1971101,9.33905464 C45.575747,9.33905464 45.0728797,9.69340312 45.0734552,10.1321295 L45.1935214,101.578312 Z" id="Fill-291" fill="#C2DAFF" transform="translate(46.258186, 55.856700) rotate(120.500000) translate(-46.258186, -55.856700) "></path>
                        <path d="M118.188697,162.058777 C118.189382,162.515028 118.693665,162.886758 119.315514,162.886758 C119.9366,162.886758 120.440534,162.518407 120.439849,162.062156 L120.943285,66.9430566 C120.9426,66.4868056 120.437554,66.1150749 119.816468,66.1150749 C119.194619,66.1150749 118.691447,66.483426 118.692132,66.939677 L118.188697,162.058777 Z" id="Fill-291" fill="#C2DAFF" transform="translate(119.565991, 114.500917) rotate(136.000000) translate(-119.565991, -114.500917) "></path>
                        <path d="M24.3870988,2.45293797 L24.3370307,43.6850491 C24.3367906,43.8828661 24.8398524,44.0426921 25.4611192,44.041939 C26.0816247,44.0411815 26.5858375,43.8801303 26.5860777,43.6823132 L26.6361458,2.45020213 C26.6363859,2.25238509 26.1325627,2.09256008 25.5120573,2.09331222 C24.8907904,2.09407062 24.387339,2.25512092 24.3870988,2.45293797" id="Fill-291" fill="#C2DAFF" transform="translate(25.486588, 23.067626) rotate(63.000000) translate(-25.486588, -23.067626) "></path>
                        <path d="M117.972979,126.09075 C117.972979,126.209157 118.477437,126.305191 119.100187,126.305191 C119.722174,126.305191 120.227396,126.209157 120.227396,126.09075 L120.227396,101.410441 C120.227396,101.292034 119.722174,101.196001 119.100187,101.196001 C118.477437,101.196001 117.972979,101.292034 117.972979,101.410441 L117.972979,126.09075 Z" id="Fill-291" fill="#C2DAFF"></path>
                        <path d="M146.973036,130.25344 C152.681484,136.260679 155.539124,139.267826 155.545959,139.274881 C163.942577,147.822928 156.975057,153.642452 153.334943,149.849042 C153.342639,149.850064 149.62215,145.956849 142.173475,138.169399" id="Path-5" stroke="#C2DAFF" stroke-width="3"></path>
                        <path d="M85.1564928,67.2226226 L85.1564928,97.8860359 C85.1564928,98.0331481 85.6609509,98.1524624 86.2837009,98.1524624 C86.9056878,98.1524624 87.4109091,98.0331481 87.4109091,97.8860359 L87.4109091,67.2226226 C87.4109091,67.0755104 86.9056878,66.9561961 86.2837009,66.9561961 C85.6609509,66.9561961 85.1564928,67.0755104 85.1564928,67.2226226" id="Fill-291" fill="#C2DAFF"></path>
                    </g>
                </g>
                <g id="small-tree" transform="translate(0.000000, 318.951220)">
                    <ellipse id="Oval" fill="#00A24C" cx="34.5" cy="41.9756098" rx="16.1842105" ry="15"></ellipse>
                    <ellipse id="Oval" fill="#D8E7FE" cx="34.5" cy="91.7760532" rx="15.6590909" ry="8.27272727"></ellipse>
                    <ellipse id="Oval" fill="#00A24C" cx="51.5" cy="57.0487805" rx="11" ry="10.195122"></ellipse>
                    <ellipse id="Oval" fill="#00A24C" cx="58.9868421" cy="52.3536585" rx="13" ry="12.5"></ellipse>
                    <path d="M34.5,44.0487805 C35.8506964,44.0487805 36.9512118,45.4715503 36.9984219,47.2503315 L37,47.3694327 L37,87.7281283 C37,89.5620739 35.8807119,91.0487805 34.5,91.0487805 C33.1493036,91.0487805 32.0487882,89.6260107 32.0015781,87.8472294 L32,87.7281283 L32,47.3694327 C32,45.5354871 33.1192881,44.0487805 34.5,44.0487805 Z" id="Line-4" fill="#14368F" fill-rule="nonzero"></path>
                    <path d="M42.5,53.0487805 C43.8506964,53.0487805 44.9512118,53.5936711 44.9984219,54.2749064 L45,54.3205196 L45,69.7770414 C45,70.4794035 43.8807119,71.0487805 42.5,71.0487805 C41.1493036,71.0487805 40.0487882,70.5038899 40.0015781,69.8226546 L40,69.7770414 L40,54.3205196 C40,53.6181575 41.1192881,53.0487805 42.5,53.0487805 Z" id="Line-4" fill="#14368F" fill-rule="nonzero" transform="translate(42.500000, 62.048780) rotate(71.000000) translate(-42.500000, -62.048780) "></path>
                    <ellipse id="Oval" fill="#00A24C" cx="21.5" cy="31.0487805" rx="21.5" ry="19.9268293"></ellipse>
                    <ellipse id="Oval" fill="#00A24C" cx="40.5" cy="26.0487805" rx="21.5" ry="19.9268293"></ellipse>
                    <g id="Path-7" transform="translate(18.315789, 6.121951)">
                        <mask id="mask-9" fill="white">
                            <use xlink:href="#path-8"></use>
                        </mask>
                        <use id="Mask" fill="#00A24C" xlink:href="#path-8"></use>
                        <path d="M37.1842105,-12.0731707 C27.6710526,-3.07317073 20.6842105,10.9268293 26.1842105,16.9268293 C31.6842105,22.9268293 33.824866,40.0365854 22.1842105,45.7317073 C10.543555,51.4268293 0.781134354,57.5790481 -7.31578947,54.1059838 C-12.7137387,51.7906076 -10.2751422,58.0642227 1.71063164e-12,72.9268293 L59.6842105,39.9268293 L69.6842105,2.92682927 C54.3596491,-13.0731707 43.5263158,-18.0731707 37.1842105,-12.0731707 Z" fill="#017F3C" mask="url(#mask-9)"></path>
                    </g>
                    <ellipse id="Oval" fill="#00A24C" cx="55.5" cy="62.0487805" rx="11" ry="10.195122"></ellipse>
                    <g id="Path-8" transform="translate(44.500000, 39.853659)">
                        <mask id="mask-11" fill="white">
                            <use xlink:href="#path-10"></use>
                        </mask>
                        <use id="Mask" fill="#00A24C" xlink:href="#path-10"></use>
                        <path d="M27.4868421,-1.84630089e-13 C22,6.19512195 17.5,9.87427647 17.5,17.195122 C17.5,24.5159674 12.5131579,32.3902439 7,32.3902439 C3.3245614,32.3902439 2.19311955,42.9918699 3.60567445,64.195122 L60,37.8428319 C41.9824561,8.48419601 31.1447368,-4.1300813 27.4868421,-1.84630089e-13 Z" fill="#017F3C" mask="url(#mask-11)"></path>
                    </g>
                    <ellipse id="Oval" fill="#00A24C" cx="26.1" cy="14" rx="12.6" ry="14"></ellipse>
                </g>
                <g id="tree" transform="translate(390.000000, 385.000000)">
                    <ellipse id="Oval" fill="#D8E7FE" cx="44.5" cy="168" rx="26.5" ry="14"></ellipse>
                    <path d="M44,116 C46.1611142,116 47.9219388,117.543857 47.9974751,119.474023 L48,119.603261 L48,163.396739 C48,165.386765 46.209139,167 44,167 C41.8388858,167 40.0780612,165.456143 40.0025249,163.525977 L40,163.396739 L40,119.603261 C40,117.613235 41.790861,116 44,116 Z" id="Line-4" fill="#14368F" fill-rule="nonzero"></path>
                    <ellipse id="Oval" fill="#21CCA0" cx="44.5" cy="63.5" rx="32.5" ry="38.5"></ellipse>
                    <ellipse id="Oval" fill="#21CCA0" cx="44.5" cy="95.5" rx="44.5" ry="38.5"></ellipse>
                    <g id="Path-6">
                        <ellipse id="Oval" fill="#21CCA0" cx="43.94375" cy="30.9875" rx="26.14375" ry="30.9875"></ellipse>
                        <mask id="mask-13" fill="white">
                            <use xlink:href="#path-12"></use>
                        </mask>
                        <use id="Mask" fill="#00A24C" xlink:href="#path-12"></use>
                        <path d="M60.1928602,-21.6240389 C47.1252121,9.48520037 45.5236702,18.0949209 50.2162971,60.1349604 C54.9089241,102.175 43.9139412,125.185343 16.1972164,134 C-2.2806001,139.876438 10.980545,149.647271 55.9806517,163.3125 L98.6040718,127.617044 L98.6040718,70.8442306 L81.552755,-7.45537211 C76.0245906,-37.6406428 68.9046256,-42.3635317 60.1928602,-21.6240389 Z" fill="#017F3C" mask="url(#mask-13)"></path>
                    </g>
                </g>
            </g>
        </g>
    </g>
</svg>